<svg id="visual" viewBox="0 0 900 600" width="900" height="600" xmlns="http://www.w3.org/2000/svg" xmlns:xlink="http://www.w3.org/1999/xlink" version="1.1"><rect x="0" y="0" width="900" height="600" fill="#001220"></rect><path d="M0 468L53 468L53 473L106 473L106 475L159 475L159 467L212 467L212 473L265 473L265 473L318 473L318 466L371 466L371 470L424 470L424 463L476 463L476 482L529 482L529 474L582 474L582 480L635 480L635 481L688 481L688 463L741 463L741 465L794 465L794 475L847 475L847 470L900 470L900 462L900 601L900 601L847 601L847 601L794 601L794 601L741 601L741 601L688 601L688 601L635 601L635 601L582 601L582 601L529 601L529 601L476 601L476 601L424 601L424 601L371 601L371 601L318 601L318 601L265 601L265 601L212 601L212 601L159 601L159 601L106 601L106 601L53 601L53 601L0 601Z" fill="#0d68b3"></path><path d="M0 496L53 496L53 492L106 492L106 504L159 504L159 498L212 498L212 496L265 496L265 492L318 492L318 498L371 498L371 496L424 496L424 503L476 503L476 490L529 490L529 492L582 492L582 492L635 492L635 492L688 492L688 498L741 498L741 504L794 504L794 493L847 493L847 489L900 489L900 497L900 601L900 601L847 601L847 601L794 601L794 601L741 601L741 601L688 601L688 601L635 601L635 601L582 601L582 601L529 601L529 601L476 601L476 601L424 601L424 601L371 601L371 601L318 601L318 601L265 601L265 601L212 601L212 601L159 601L159 601L106 601L106 601L53 601L53 601L0 601Z" fill="#075ca8"></path><path d="M0 526L53 526L53 519L106 519L106 518L159 518L159 513L212 513L212 516L265 516L265 520L318 520L318 516L371 516L371 517L424 517L424 523L476 523L476 519L529 519L529 529L582 529L582 524L635 524L635 528L688 528L688 523L741 523L741 514L794 514L794 521L847 521L847 520L900 520L900 529L900 601L900 601L847 601L847 601L794 601L794 601L741 601L741 601L688 601L688 601L635 601L635 601L582 601L582 601L529 601L529 601L476 601L476 601L424 601L424 601L371 601L371 601L318 601L318 601L265 601L265 601L212 601L212 601L159 601L159 601L106 601L106 601L53 601L53 601L0 601Z" fill="#04509d"></path><path d="M0 549L53 549L53 543L106 543L106 546L159 546L159 541L212 541L212 548L265 548L265 540L318 540L318 546L371 546L371 541L424 541L424 546L476 546L476 547L529 547L529 544L582 544L582 544L635 544L635 539L688 539L688 550L741 550L741 549L794 549L794 546L847 546L847 541L900 541L900 541L900 601L900 601L847 601L847 601L794 601L794 601L741 601L741 601L688 601L688 601L635 601L635 601L582 601L582 601L529 601L529 601L476 601L476 601L424 601L424 601L371 601L371 601L318 601L318 601L265 601L265 601L212 601L212 601L159 601L159 601L106 601L106 601L53 601L53 601L0 601Z" fill="#044492"></path><path d="M0 574L53 574L53 565L106 565L106 572L159 572L159 570L212 570L212 564L265 564L265 570L318 570L318 567L371 567L371 564L424 564L424 567L476 567L476 564L529 564L529 572L582 572L582 567L635 567L635 575L688 575L688 565L741 565L741 572L794 572L794 563L847 563L847 571L900 571L900 572L900 601L900 601L847 601L847 601L794 601L794 601L741 601L741 601L688 601L688 601L635 601L635 601L582 601L582 601L529 601L529 601L476 601L476 601L424 601L424 601L371 601L371 601L318 601L318 601L265 601L265 601L212 601L212 601L159 601L159 601L106 601L106 601L53 601L53 601L0 601Z" fill="#053987"></path></svg>