<svg id="visual" viewBox="0 0 900 600" width="900" height="600" xmlns="http://www.w3.org/2000/svg" xmlns:xlink="http://www.w3.org/1999/xlink" version="1.1"><rect x="0" y="0" width="900" height="600" fill="#001220"></rect><path d="M0 87L16.7 86.7C33.3 86.3 66.7 85.7 100 87.7C133.3 89.7 166.7 94.3 200 94.7C233.3 95 266.7 91 300 87.3C333.3 83.7 366.7 80.3 400 81.2C433.3 82 466.7 87 500 87.5C533.3 88 566.7 84 600 83.5C633.3 83 666.7 86 700 85.7C733.3 85.3 766.7 81.7 800 82.7C833.3 83.7 866.7 89.3 883.3 92.2L900 95L900 0L883.3 0C866.7 0 833.3 0 800 0C766.7 0 733.3 0 700 0C666.7 0 633.3 0 600 0C566.7 0 533.3 0 500 0C466.7 0 433.3 0 400 0C366.7 0 333.3 0 300 0C266.7 0 233.3 0 200 0C166.7 0 133.3 0 100 0C66.7 0 33.3 0 16.7 0L0 0Z" fill="#0d68b3"></path><path d="M0 78L16.7 76.3C33.3 74.7 66.7 71.3 100 71C133.3 70.7 166.7 73.3 200 74C233.3 74.7 266.7 73.3 300 72.2C333.3 71 366.7 70 400 71.8C433.3 73.7 466.7 78.3 500 81C533.3 83.7 566.7 84.3 600 82C633.3 79.7 666.7 74.3 700 73.8C733.3 73.3 766.7 77.7 800 77C833.3 76.3 866.7 70.7 883.3 67.8L900 65L900 0L883.3 0C866.7 0 833.3 0 800 0C766.7 0 733.3 0 700 0C666.7 0 633.3 0 600 0C566.7 0 533.3 0 500 0C466.7 0 433.3 0 400 0C366.7 0 333.3 0 300 0C266.7 0 233.3 0 200 0C166.7 0 133.3 0 100 0C66.7 0 33.3 0 16.7 0L0 0Z" fill="#085eaa"></path><path d="M0 55L16.7 54.3C33.3 53.7 66.7 52.3 100 54.3C133.3 56.3 166.7 61.7 200 63.8C233.3 66 266.7 65 300 63.7C333.3 62.3 366.7 60.7 400 59.3C433.3 58 466.7 57 500 57C533.3 57 566.7 58 600 57.5C633.3 57 666.7 55 700 55.7C733.3 56.3 766.7 59.7 800 62.2C833.3 64.7 866.7 66.3 883.3 67.2L900 68L900 0L883.3 0C866.7 0 833.3 0 800 0C766.7 0 733.3 0 700 0C666.7 0 633.3 0 600 0C566.7 0 533.3 0 500 0C466.7 0 433.3 0 400 0C366.7 0 333.3 0 300 0C266.7 0 233.3 0 200 0C166.7 0 133.3 0 100 0C66.7 0 33.3 0 16.7 0L0 0Z" fill="#0555a1"></path><path d="M0 40L16.7 42.2C33.3 44.3 66.7 48.7 100 51C133.3 53.3 166.7 53.7 200 53.3C233.3 53 266.7 52 300 51.8C333.3 51.7 366.7 52.3 400 52.2C433.3 52 466.7 51 500 51.2C533.3 51.3 566.7 52.7 600 52.8C633.3 53 666.7 52 700 50.3C733.3 48.7 766.7 46.3 800 44.7C833.3 43 866.7 42 883.3 41.5L900 41L900 0L883.3 0C866.7 0 833.3 0 800 0C766.7 0 733.3 0 700 0C666.7 0 633.3 0 600 0C566.7 0 533.3 0 500 0C466.7 0 433.3 0 400 0C366.7 0 333.3 0 300 0C266.7 0 233.3 0 200 0C166.7 0 133.3 0 100 0C66.7 0 33.3 0 16.7 0L0 0Z" fill="#044b99"></path><path d="M0 28L16.7 27.7C33.3 27.3 66.7 26.7 100 28.3C133.3 30 166.7 34 200 34.8C233.3 35.7 266.7 33.3 300 33C333.3 32.7 366.7 34.3 400 35C433.3 35.7 466.7 35.3 500 34.3C533.3 33.3 566.7 31.7 600 31.8C633.3 32 666.7 34 700 33C733.3 32 766.7 28 800 26C833.3 24 866.7 24 883.3 24L900 24L900 0L883.3 0C866.7 0 833.3 0 800 0C766.7 0 733.3 0 700 0C666.7 0 633.3 0 600 0C566.7 0 533.3 0 500 0C466.7 0 433.3 0 400 0C366.7 0 333.3 0 300 0C266.7 0 233.3 0 200 0C166.7 0 133.3 0 100 0C66.7 0 33.3 0 16.7 0L0 0Z" fill="#044290"></path><path d="M0 13L16.7 14.5C33.3 16 66.7 19 100 19.7C133.3 20.3 166.7 18.7 200 16.8C233.3 15 266.7 13 300 12.8C333.3 12.7 366.7 14.3 400 14.2C433.3 14 466.7 12 500 11.3C533.3 10.7 566.7 11.3 600 11.7C633.3 12 666.7 12 700 13.2C733.3 14.3 766.7 16.7 800 16.5C833.3 16.3 866.7 13.7 883.3 12.3L900 11L900 0L883.3 0C866.7 0 833.3 0 800 0C766.7 0 733.3 0 700 0C666.7 0 633.3 0 600 0C566.7 0 533.3 0 500 0C466.7 0 433.3 0 400 0C366.7 0 333.3 0 300 0C266.7 0 233.3 0 200 0C166.7 0 133.3 0 100 0C66.7 0 33.3 0 16.7 0L0 0Z" fill="#053987"></path></svg>