<svg id="visual" viewBox="0 0 900 600" width="900" height="600" xmlns="http://www.w3.org/2000/svg" xmlns:xlink="http://www.w3.org/1999/xlink" version="1.1"><rect x="0" y="0" width="900" height="600" fill="#001220"></rect><path d="M0 378L16.7 379C33.3 380 66.7 382 100 377.3C133.3 372.7 166.7 361.3 200 360.3C233.3 359.3 266.7 368.7 300 377.7C333.3 386.7 366.7 395.3 400 393.5C433.3 391.7 466.7 379.3 500 378.3C533.3 377.3 566.7 387.7 600 388.7C633.3 389.7 666.7 381.3 700 381.7C733.3 382 766.7 391 800 388.7C833.3 386.3 866.7 372.7 883.3 365.8L900 359L900 601L883.3 601C866.7 601 833.3 601 800 601C766.7 601 733.3 601 700 601C666.7 601 633.3 601 600 601C566.7 601 533.3 601 500 601C466.7 601 433.3 601 400 601C366.7 601 333.3 601 300 601C266.7 601 233.3 601 200 601C166.7 601 133.3 601 100 601C66.7 601 33.3 601 16.7 601L0 601Z" fill="#0d68b3"></path><path d="M0 403L16.7 407C33.3 411 66.7 419 100 419.5C133.3 420 166.7 413 200 411.3C233.3 409.7 266.7 413.3 300 416.2C333.3 419 366.7 421 400 416.3C433.3 411.7 466.7 400.3 500 394C533.3 387.7 566.7 386.3 600 392.3C633.3 398.3 666.7 411.7 700 412.7C733.3 413.7 766.7 402.3 800 403.7C833.3 405 866.7 419 883.3 426L900 433L900 601L883.3 601C866.7 601 833.3 601 800 601C766.7 601 733.3 601 700 601C666.7 601 633.3 601 600 601C566.7 601 533.3 601 500 601C466.7 601 433.3 601 400 601C366.7 601 333.3 601 300 601C266.7 601 233.3 601 200 601C166.7 601 133.3 601 100 601C66.7 601 33.3 601 16.7 601L0 601Z" fill="#085eaa"></path><path d="M0 459L16.7 460.5C33.3 462 66.7 465 100 460C133.3 455 166.7 442 200 436.7C233.3 431.3 266.7 433.7 300 437.2C333.3 440.7 366.7 445.3 400 448.5C433.3 451.7 466.7 453.3 500 453.2C533.3 453 566.7 451 600 452.5C633.3 454 666.7 459 700 457.3C733.3 455.7 766.7 447.3 800 441.2C833.3 435 866.7 431 883.3 429L900 427L900 601L883.3 601C866.7 601 833.3 601 800 601C766.7 601 733.3 601 700 601C666.7 601 633.3 601 600 601C566.7 601 533.3 601 500 601C466.7 601 433.3 601 400 601C366.7 601 333.3 601 300 601C266.7 601 233.3 601 200 601C166.7 601 133.3 601 100 601C66.7 601 33.3 601 16.7 601L0 601Z" fill="#0555a1"></path><path d="M0 496L16.7 490.8C33.3 485.7 66.7 475.3 100 469.5C133.3 463.7 166.7 462.3 200 462.8C233.3 463.3 266.7 465.7 300 466.2C333.3 466.7 366.7 465.3 400 465.8C433.3 466.3 466.7 468.7 500 468.2C533.3 467.7 566.7 464.3 600 463.8C633.3 463.3 666.7 465.7 700 470C733.3 474.3 766.7 480.7 800 484.8C833.3 489 866.7 491 883.3 492L900 493L900 601L883.3 601C866.7 601 833.3 601 800 601C766.7 601 733.3 601 700 601C666.7 601 633.3 601 600 601C566.7 601 533.3 601 500 601C466.7 601 433.3 601 400 601C366.7 601 333.3 601 300 601C266.7 601 233.3 601 200 601C166.7 601 133.3 601 100 601C66.7 601 33.3 601 16.7 601L0 601Z" fill="#044b99"></path><path d="M0 527L16.7 527.7C33.3 528.3 66.7 529.7 100 525.7C133.3 521.7 166.7 512.3 200 510.2C233.3 508 266.7 513 300 513.5C333.3 514 366.7 510 400 508.7C433.3 507.3 466.7 508.7 500 511.3C533.3 514 566.7 518 600 517.2C633.3 516.3 666.7 510.7 700 513.3C733.3 516 766.7 527 800 532.2C833.3 537.3 866.7 536.7 883.3 536.3L900 536L900 601L883.3 601C866.7 601 833.3 601 800 601C766.7 601 733.3 601 700 601C666.7 601 633.3 601 600 601C566.7 601 533.3 601 500 601C466.7 601 433.3 601 400 601C366.7 601 333.3 601 300 601C266.7 601 233.3 601 200 601C166.7 601 133.3 601 100 601C66.7 601 33.3 601 16.7 601L0 601Z" fill="#044290"></path><path d="M0 564L16.7 560.3C33.3 556.7 66.7 549.3 100 547.7C133.3 546 166.7 550 200 554.5C233.3 559 266.7 564 300 564.5C333.3 565 366.7 561 400 561.2C433.3 561.3 466.7 565.7 500 567.2C533.3 568.7 566.7 567.3 600 566.7C633.3 566 666.7 566 700 563C733.3 560 766.7 554 800 554.7C833.3 555.3 866.7 562.7 883.3 566.3L900 570L900 601L883.3 601C866.7 601 833.3 601 800 601C766.7 601 733.3 601 700 601C666.7 601 633.3 601 600 601C566.7 601 533.3 601 500 601C466.7 601 433.3 601 400 601C366.7 601 333.3 601 300 601C266.7 601 233.3 601 200 601C166.7 601 133.3 601 100 601C66.7 601 33.3 601 16.7 601L0 601Z" fill="#053987"></path></svg>